<svg id="svg" version="1.1" xmlns="http://www.w3.org/2000/svg" xmlns:xlink="http://www.w3.org/1999/xlink" width="400" height="400" viewBox="0, 0, 400,400"><g id="svgg"><path id="path0" d="M230.200 150.977 C 229.540 151.284,228.370 151.823,227.600 152.175 C 223.504 154.048,220.310 160.133,220.865 165.009 L 221.000 166.200 224.294 166.414 C 226.106 166.532,227.807 166.847,228.074 167.114 C 228.341 167.381,229.047 167.600,229.643 167.600 C 234.936 167.600,244.818 178.887,240.900 180.458 C 240.295 180.701,239.407 181.081,238.927 181.303 C 238.124 181.674,236.066 180.160,236.013 179.161 C 236.006 179.030,235.649 178.518,235.221 178.024 C 234.793 177.530,234.388 177.006,234.321 176.860 C 233.558 175.182,227.836 172.400,225.149 172.400 C 222.998 172.400,222.881 172.580,223.893 174.343 C 224.679 175.713,223.885 177.000,221.527 178.176 C 220.310 178.783,218.081 176.546,216.968 173.600 C 216.844 173.270,216.466 172.370,216.128 171.600 C 214.818 168.608,215.033 160.601,216.532 156.600 L 217.131 155.000 215.735 154.874 C 214.941 154.802,213.927 155.018,213.383 155.374 C 212.858 155.718,212.069 156.000,211.629 156.000 C 210.821 156.000,206.414 158.765,206.405 159.278 C 206.402 159.430,205.783 160.229,205.029 161.052 L 203.659 162.548 199.212 162.667 C 192.459 162.848,186.640 167.214,185.911 172.647 C 185.617 174.842,184.556 176.400,183.356 176.400 C 182.109 176.400,177.577 177.949,176.769 178.652 C 176.421 178.953,176.000 179.200,175.833 179.200 C 175.136 179.200,172.525 182.119,171.635 183.891 C 171.109 184.941,170.435 186.278,170.139 186.862 C 169.420 188.279,169.421 193.960,170.140 195.011 C 170.437 195.445,170.800 196.291,170.946 196.891 C 171.441 198.928,176.963 202.516,180.800 203.294 C 185.595 204.266,193.325 202.863,194.607 200.789 C 195.272 199.713,198.400 201.270,198.400 202.677 C 198.400 202.911,198.680 203.334,199.022 203.618 C 199.742 204.216,198.344 205.674,196.300 206.457 C 195.695 206.689,195.200 207.032,195.200 207.221 C 195.200 207.410,194.525 207.687,193.700 207.839 C 192.875 207.990,191.845 208.358,191.411 208.657 C 190.839 209.050,189.094 209.200,185.071 209.200 C 179.359 209.200,178.736 209.073,175.121 207.176 C 174.307 206.749,173.357 206.400,173.008 206.400 C 172.660 206.400,172.271 206.130,172.145 205.800 C 172.018 205.470,171.673 205.200,171.377 205.200 C 171.082 205.200,170.664 204.886,170.450 204.503 C 170.235 204.120,170.002 203.895,169.930 204.003 C 166.621 209.010,167.767 216.326,172.674 221.507 L 174.991 223.953 175.058 228.277 C 175.148 234.079,179.267 241.067,182.684 241.214 C 182.858 241.221,183.720 241.575,184.600 242.000 C 185.713 242.538,187.052 242.773,189.000 242.773 C 190.948 242.773,192.287 242.538,193.400 242.000 C 194.280 241.575,195.221 241.221,195.490 241.214 C 195.850 241.204,195.877 240.928,195.590 240.174 C 195.104 238.894,195.080 236.121,195.553 235.829 C 195.748 235.709,196.031 234.618,196.182 233.405 C 196.334 232.192,196.691 230.966,196.976 230.681 C 197.261 230.396,197.616 229.779,197.765 229.311 C 198.182 227.995,201.182 225.200,202.176 225.200 C 202.767 225.200,203.411 225.740,204.129 226.836 C 205.447 228.849,205.449 228.749,204.050 230.280 C 201.320 233.270,200.158 238.933,201.943 240.548 C 204.300 242.681,210.899 243.405,213.800 241.849 C 214.460 241.495,215.296 241.204,215.657 241.202 C 216.019 241.201,216.418 240.930,216.545 240.600 C 216.671 240.270,217.030 240.000,217.341 240.000 C 217.652 240.000,218.693 239.104,219.654 238.009 C 221.586 235.806,223.666 235.401,227.755 236.430 C 229.583 236.891,235.657 235.961,235.933 235.178 C 236.007 234.970,236.295 234.800,236.575 234.800 C 236.854 234.800,237.528 234.388,238.071 233.885 C 238.614 233.381,239.495 232.613,240.029 232.177 C 240.563 231.741,241.385 230.578,241.855 229.592 C 244.879 223.256,244.801 222.375,240.985 219.800 C 240.002 219.137,238.922 218.966,234.659 218.800 L 229.517 218.600 228.802 216.714 L 228.088 214.827 229.544 213.925 C 231.488 212.720,239.034 212.337,240.601 213.364 C 241.135 213.714,241.835 214.000,242.157 214.000 C 242.479 214.000,242.981 214.225,243.271 214.501 C 243.562 214.776,244.472 215.451,245.292 216.001 C 246.113 216.550,247.437 217.855,248.235 218.900 C 249.839 221.000,251.987 221.474,254.338 220.245 C 254.922 219.940,255.850 219.491,256.400 219.248 C 259.357 217.940,262.786 214.047,263.324 211.387 C 263.456 210.734,263.788 209.252,264.062 208.093 C 264.897 204.565,263.434 201.228,260.215 199.316 C 256.178 196.918,248.623 197.553,244.800 200.612 C 243.366 201.760,242.099 201.661,240.812 200.302 C 239.468 198.881,239.434 197.438,240.722 196.514 C 241.095 196.246,241.580 195.876,241.800 195.692 C 242.020 195.507,243.100 194.938,244.200 194.428 C 245.300 193.918,246.650 193.273,247.200 192.995 C 247.750 192.717,249.145 192.363,250.300 192.207 C 252.248 191.945,252.400 191.846,252.400 190.839 C 252.400 190.242,252.664 189.404,252.987 188.976 C 253.310 188.549,253.580 187.922,253.587 187.581 C 253.624 185.778,258.585 181.200,260.502 181.200 C 261.040 181.200,262.051 181.001,262.749 180.758 C 264.671 180.088,265.265 180.790,265.118 183.560 C 265.019 185.440,264.874 185.810,264.200 185.907 C 259.765 186.541,256.677 191.675,259.900 193.055 C 260.725 193.408,261.670 193.856,262.000 194.049 C 262.330 194.243,263.046 194.593,263.592 194.826 C 264.137 195.059,264.704 195.445,264.851 195.683 C 265.301 196.410,266.310 195.727,267.446 193.928 C 268.480 192.290,268.874 191.175,269.568 187.928 C 270.044 185.701,268.512 179.902,267.000 178.211 C 266.780 177.965,266.159 177.272,265.620 176.671 C 264.985 175.963,264.538 174.841,264.350 173.489 C 263.371 166.426,259.062 160.892,253.818 159.961 C 247.379 158.818,247.413 158.829,246.634 157.705 C 242.650 151.959,234.904 148.788,230.200 150.977 M191.644 155.282 C 190.344 156.113,190.238 156.122,189.111 155.475 C 187.117 154.330,181.936 154.839,179.200 156.449 C 178.870 156.643,178.202 156.974,177.716 157.185 C 174.113 158.746,173.974 162.774,177.491 163.684 C 179.129 164.108,179.674 165.137,179.521 167.514 L 179.400 169.400 177.348 169.519 C 175.902 169.603,175.113 169.455,174.676 169.019 C 174.336 168.679,173.904 168.400,173.718 168.400 C 172.882 168.400,169.200 164.175,169.200 163.216 C 169.200 162.364,163.690 162.729,161.894 163.700 C 159.648 164.914,156.126 168.243,155.827 169.434 C 155.694 169.966,155.408 170.400,155.192 170.400 C 154.389 170.400,154.799 172.371,155.700 172.842 C 156.763 173.398,158.760 175.606,158.784 176.251 C 158.793 176.499,159.053 176.912,159.363 177.169 C 159.672 177.426,160.050 178.708,160.202 180.019 C 160.354 181.329,160.641 182.502,160.839 182.624 C 161.708 183.161,161.241 186.804,160.255 187.179 C 157.248 188.322,155.215 187.053,155.206 184.026 C 155.188 177.440,151.153 175.095,145.600 178.443 C 145.270 178.642,144.744 178.925,144.431 179.072 C 143.061 179.714,139.600 184.091,139.600 185.182 C 139.600 185.578,139.330 186.126,139.000 186.400 C 138.157 187.100,138.167 194.258,139.013 195.376 C 139.336 195.804,139.600 196.405,139.600 196.712 C 139.600 197.554,141.222 198.738,142.800 199.050 C 143.570 199.201,144.779 199.567,145.487 199.863 C 147.260 200.603,157.333 200.598,159.450 199.857 C 160.302 199.558,161.871 199.185,162.937 199.027 L 164.873 198.740 164.666 196.870 C 164.553 195.842,164.243 193.883,163.978 192.519 C 163.567 190.402,163.592 189.744,164.148 188.044 C 164.507 186.947,164.806 185.724,164.813 185.325 C 164.826 184.549,166.127 181.763,167.392 179.800 C 169.755 176.136,175.974 171.666,178.800 171.602 C 179.648 171.583,180.043 171.082,181.398 168.305 C 182.276 166.504,183.723 164.303,184.612 163.415 C 187.104 160.926,189.224 159.200,189.790 159.200 C 190.071 159.200,190.517 158.941,190.780 158.624 C 191.043 158.307,191.740 157.992,192.329 157.924 C 193.280 157.814,193.414 157.609,193.523 156.100 C 193.664 154.156,193.508 154.088,191.644 155.282 M207.018 184.992 C 210.479 186.247,212.148 187.598,214.369 190.939 L 216.139 193.600 219.620 193.600 C 222.227 193.600,223.227 193.751,223.600 194.200 C 223.874 194.530,224.308 194.800,224.566 194.800 C 226.002 194.800,230.391 200.666,230.099 202.195 C 229.735 204.101,225.997 205.089,225.149 203.504 C 222.612 198.765,217.839 197.556,217.397 201.540 C 217.260 202.783,216.987 204.160,216.792 204.600 C 216.597 205.040,216.267 206.062,216.059 206.872 C 215.245 210.034,210.722 215.510,207.638 217.067 C 206.847 217.466,205.930 217.988,205.600 218.225 C 203.010 220.092,200.668 219.769,200.285 217.494 C 200.166 216.782,199.943 215.884,199.790 215.498 C 199.576 214.955,199.833 214.662,200.929 214.204 C 201.708 213.878,202.458 213.429,202.596 213.206 C 202.734 212.983,203.114 212.800,203.440 212.800 C 204.059 212.800,205.926 211.567,207.377 210.200 C 212.858 205.036,212.587 195.011,206.860 191.041 C 204.004 189.062,195.349 189.889,191.626 192.497 C 190.360 193.384,188.932 192.649,187.722 190.487 L 186.844 188.918 187.922 188.133 C 193.084 184.376,201.501 182.991,207.018 184.992 M137.696 205.646 C 136.461 208.294,136.409 214.073,137.600 216.296 C 138.040 217.116,138.400 218.000,138.400 218.260 C 138.400 219.440,142.922 223.213,145.094 223.844 C 147.938 224.671,151.829 224.179,153.400 222.792 C 155.043 221.343,156.551 221.410,157.942 222.995 C 159.677 224.972,159.246 226.187,156.236 227.809 C 155.446 228.234,154.800 228.861,154.800 229.202 C 154.800 229.904,157.026 232.000,157.771 232.000 C 158.840 232.000,160.110 233.906,159.822 235.078 C 159.085 238.074,157.861 238.586,154.930 237.122 C 153.341 236.329,152.531 235.549,148.899 231.319 C 147.566 229.766,144.203 229.006,143.761 230.158 C 142.790 232.688,148.462 241.200,151.119 241.200 C 151.336 241.200,152.297 241.556,153.256 241.991 C 155.658 243.081,159.872 243.085,162.000 242.000 C 162.862 241.560,163.747 241.200,163.966 241.200 C 164.185 241.200,165.010 240.762,165.798 240.227 C 167.215 239.266,169.589 239.558,170.400 240.795 C 170.722 241.286,173.103 241.681,173.348 241.284 C 173.471 241.084,173.264 240.568,172.886 240.136 C 171.849 238.949,170.400 236.136,170.400 235.310 C 170.400 234.907,170.150 234.221,169.845 233.786 C 169.513 233.311,169.232 231.621,169.145 229.571 C 169.001 226.180,168.984 226.131,167.259 224.175 C 163.106 219.465,160.920 210.185,162.953 205.900 C 163.363 205.036,160.100 204.860,159.260 205.700 C 158.436 206.525,148.855 206.630,146.536 205.840 C 145.503 205.488,144.222 205.200,143.689 205.200 C 143.157 205.200,142.154 204.948,141.460 204.640 C 138.910 203.506,138.663 203.573,137.696 205.646 " stroke="none" fill="#e9eaf2" fill-rule="evenodd"></path><path id="path1" d="M0.000 200.000 L 0.000 400.000 200.000 400.000 L 400.000 400.000 400.000 200.000 L 400.000 0.000 200.000 0.000 L 0.000 0.000 0.000 200.000 M224.950 76.820 C 225.292 77.133,224.506 78.940,222.610 82.200 C 222.098 83.080,221.112 84.880,220.419 86.200 C 219.725 87.520,218.532 89.680,217.767 91.000 C 217.002 92.320,216.103 93.940,215.770 94.600 C 215.437 95.260,214.469 97.060,213.619 98.600 C 212.769 100.140,211.562 102.390,210.938 103.600 C 210.313 104.810,209.569 106.046,209.283 106.346 C 207.955 107.744,208.672 107.797,232.028 108.000 C 257.719 108.224,256.140 108.016,254.702 110.984 C 253.027 114.443,252.400 115.945,252.400 116.495 C 252.400 116.829,252.130 117.326,251.800 117.600 C 251.470 117.874,251.200 118.379,251.200 118.723 C 251.200 119.330,250.121 121.913,248.969 124.062 C 248.656 124.646,248.400 125.396,248.400 125.729 C 248.400 126.063,248.152 126.845,247.849 127.468 C 247.546 128.090,247.023 129.230,246.687 130.000 C 246.352 130.770,245.724 132.210,245.292 133.200 C 244.860 134.190,244.112 135.990,243.629 137.200 C 242.686 139.566,241.829 141.528,240.951 143.332 C 240.648 143.955,240.400 144.710,240.400 145.009 C 240.400 145.962,239.582 146.125,234.598 146.163 C 231.658 146.185,229.500 146.378,229.162 146.648 C 228.853 146.894,227.943 147.214,227.140 147.358 C 226.337 147.503,225.460 147.886,225.191 148.211 C 224.922 148.535,224.527 148.800,224.314 148.800 C 224.101 148.800,223.472 149.157,222.917 149.594 C 222.045 150.279,221.323 150.383,217.613 150.353 C 214.403 150.327,213.005 150.480,212.079 150.959 C 211.397 151.312,210.481 151.600,210.043 151.600 C 209.606 151.600,209.134 151.783,208.996 152.006 C 208.858 152.229,208.150 152.661,207.422 152.965 C 206.695 153.269,205.085 154.436,203.845 155.559 C 200.023 159.020,197.393 158.304,198.373 154.068 C 199.138 150.756,200.005 145.737,200.267 143.100 L 200.496 140.800 181.656 140.800 L 162.815 140.800 162.560 139.782 C 162.406 139.168,162.641 137.767,163.152 136.254 C 163.618 134.873,164.001 133.396,164.002 132.972 C 164.004 132.547,164.274 131.684,164.602 131.054 C 164.931 130.424,165.200 129.518,165.200 129.040 C 165.200 128.563,165.560 127.148,166.000 125.896 C 166.440 124.644,166.800 123.276,166.800 122.856 C 166.800 122.435,167.069 121.576,167.398 120.946 C 167.726 120.316,167.996 119.296,167.998 118.680 C 167.999 118.064,168.245 117.074,168.544 116.480 C 168.844 115.886,169.212 114.599,169.362 113.620 C 169.512 112.641,169.807 111.633,170.017 111.379 C 170.227 111.126,170.516 110.037,170.659 108.960 C 170.802 107.882,171.162 106.645,171.460 106.211 C 171.757 105.777,172.000 104.980,172.000 104.439 C 172.000 103.899,172.373 102.274,172.828 100.828 C 173.610 98.349,174.015 96.924,175.364 91.900 C 177.232 84.946,177.696 83.279,178.066 82.200 C 178.292 81.540,178.641 80.197,178.842 79.216 C 179.043 78.236,179.394 77.246,179.623 77.016 C 180.442 76.196,224.061 76.007,224.950 76.820 M240.507 150.896 C 243.138 152.259,247.600 156.362,247.600 157.419 C 247.600 157.720,248.631 157.966,250.429 158.095 C 251.984 158.206,253.460 158.500,253.709 158.749 C 253.957 158.997,254.442 159.200,254.786 159.200 C 258.747 159.200,265.200 167.337,265.200 172.331 C 265.200 174.228,265.381 174.648,267.200 176.962 C 268.300 178.362,269.201 179.753,269.202 180.054 C 269.204 180.354,269.496 181.140,269.852 181.800 C 271.221 184.338,270.646 190.669,268.780 193.600 C 268.570 193.930,268.227 194.596,268.017 195.079 C 267.058 197.289,265.904 197.413,262.853 195.631 C 261.317 194.734,259.694 194.000,259.246 194.000 C 258.798 194.000,258.064 193.606,257.616 193.125 C 256.777 192.225,256.529 191.200,257.150 191.200 C 257.343 191.200,257.610 190.648,257.745 189.973 C 258.066 188.369,260.885 185.748,262.643 185.418 C 263.914 185.180,264.000 185.063,264.000 183.582 L 264.000 182.000 262.220 182.000 C 258.972 182.000,255.092 185.544,254.032 189.479 C 253.402 191.819,252.531 192.624,249.800 193.388 C 245.835 194.497,240.800 197.216,240.800 198.249 C 240.800 200.500,242.888 200.823,245.656 199.000 C 246.825 198.230,248.080 197.600,248.445 197.600 C 248.810 197.600,249.624 197.331,250.254 197.002 C 254.137 194.978,262.360 198.015,264.544 202.280 C 265.364 203.880,265.432 209.142,264.656 210.940 C 262.953 214.887,262.727 215.235,260.306 217.649 C 256.418 221.523,250.029 223.063,248.252 220.554 C 245.418 216.553,240.176 213.557,236.125 213.626 C 232.941 213.679,229.810 214.594,229.675 215.509 C 229.426 217.199,230.313 218.107,231.935 217.824 C 235.874 217.139,236.550 217.137,238.731 217.810 C 244.519 219.595,246.337 223.397,243.763 228.331 C 243.456 228.919,243.204 229.631,243.202 229.913 C 243.201 230.194,242.930 230.529,242.600 230.655 C 242.270 230.782,241.997 231.091,241.993 231.343 C 241.978 232.360,236.980 236.229,235.200 236.600 C 234.430 236.761,233.586 237.065,233.324 237.275 C 232.840 237.665,227.251 237.489,224.062 236.984 C 222.410 236.722,222.265 236.781,221.110 238.182 C 219.943 239.598,218.185 240.892,215.200 242.533 C 213.219 243.622,204.453 243.734,203.295 242.686 C 202.878 242.309,202.385 242.000,202.200 242.000 C 200.095 242.000,199.579 235.343,201.438 232.171 C 202.009 231.197,202.596 230.400,202.742 230.400 C 203.498 230.400,203.946 228.846,203.480 227.841 C 202.488 225.702,200.071 227.088,197.939 231.019 C 197.252 232.285,197.045 233.495,196.898 237.086 L 196.715 241.571 195.257 242.469 C 193.026 243.843,185.463 243.822,182.641 242.435 C 176.838 239.581,172.102 231.007,173.677 226.207 L 174.200 224.614 171.714 222.067 C 170.347 220.666,169.108 219.132,168.960 218.660 C 168.813 218.187,168.533 217.697,168.339 217.572 C 168.144 217.446,167.786 216.186,167.543 214.772 C 167.300 213.357,166.962 211.941,166.792 211.625 C 166.623 211.308,166.733 210.228,167.038 209.225 C 167.342 208.221,167.593 207.009,167.596 206.531 C 167.605 204.722,169.881 202.759,170.871 203.705 C 171.162 203.982,171.850 204.431,172.400 204.702 C 172.950 204.973,173.670 205.356,174.000 205.553 C 179.610 208.909,188.300 209.361,193.732 206.580 C 194.355 206.261,195.075 205.994,195.332 205.986 C 195.590 205.978,196.327 205.540,196.971 205.014 L 198.142 204.057 197.171 202.631 C 196.168 201.158,195.808 200.939,195.421 201.565 C 195.164 201.981,192.741 203.137,189.800 204.246 C 187.575 205.085,181.650 205.262,180.726 204.517 C 180.437 204.283,179.570 203.962,178.800 203.803 C 177.385 203.511,174.712 202.101,174.467 201.517 C 174.393 201.343,174.158 201.200,173.943 201.200 C 173.245 201.200,170.400 198.683,170.400 198.065 C 170.400 197.734,170.094 197.125,169.721 196.713 C 168.660 195.540,168.751 186.749,169.845 184.800 C 172.962 179.243,176.189 176.732,181.388 175.819 L 183.776 175.400 184.788 172.519 C 185.345 170.935,186.025 169.414,186.300 169.139 C 186.575 168.865,186.800 168.444,186.800 168.205 C 186.800 167.326,191.257 163.352,193.000 162.676 C 193.220 162.591,194.030 162.280,194.800 161.984 C 195.570 161.689,197.855 161.380,199.878 161.297 C 203.553 161.146,203.557 161.145,204.921 159.635 C 206.689 157.677,209.936 155.204,210.758 155.187 C 211.111 155.180,211.749 154.910,212.176 154.587 C 214.072 153.153,218.908 154.039,218.112 155.674 C 216.011 159.989,215.459 165.888,216.800 169.704 C 217.240 170.956,217.600 172.232,217.600 172.541 C 217.600 172.850,217.870 173.326,218.200 173.600 C 218.530 173.874,218.800 174.379,218.800 174.723 C 218.800 175.559,220.378 177.200,221.181 177.200 C 222.624 177.200,223.349 175.643,222.574 174.204 C 221.341 171.915,221.900 171.469,225.707 171.704 C 228.835 171.897,230.834 172.559,232.436 173.932 C 234.542 175.737,235.207 176.420,236.592 178.200 C 237.448 179.300,238.186 180.256,238.231 180.323 C 238.276 180.391,238.963 180.176,239.757 179.844 C 241.289 179.204,241.584 178.417,240.600 177.600 C 240.270 177.326,240.000 176.896,240.000 176.645 C 240.000 175.546,233.506 169.600,232.305 169.600 C 232.015 169.600,231.340 169.293,230.806 168.919 C 230.065 168.400,228.707 168.198,225.104 168.069 C 219.527 167.870,219.447 167.806,219.699 163.667 C 220.046 157.978,224.141 151.200,227.232 151.200 C 227.601 151.200,228.118 150.939,228.383 150.621 C 229.458 149.325,237.839 149.516,240.507 150.896 M194.944 153.109 C 195.453 153.933,193.771 158.602,192.920 158.724 C 192.446 158.792,191.843 159.107,191.580 159.424 C 191.317 159.741,190.880 160.000,190.609 160.000 C 190.069 160.000,186.509 162.592,185.688 163.582 C 184.136 165.454,182.041 168.902,181.807 169.970 C 181.536 171.201,180.292 172.400,179.286 172.400 C 176.008 172.400,166.800 180.148,166.800 182.907 C 166.800 183.190,166.488 183.867,166.107 184.411 C 165.246 185.639,165.059 195.866,165.879 196.854 C 167.999 199.409,158.481 202.077,149.600 201.418 C 144.248 201.020,138.800 199.025,138.800 197.462 C 138.800 197.242,138.498 196.729,138.128 196.320 C 136.890 194.953,137.178 187.571,138.585 184.591 C 139.824 181.967,144.302 177.200,145.527 177.200 C 145.923 177.200,146.596 176.936,147.024 176.613 C 150.817 173.744,156.000 177.627,156.000 183.338 C 156.000 186.222,155.974 186.182,158.100 186.566 L 159.600 186.836 159.582 183.718 C 159.557 179.171,157.835 175.293,155.134 173.698 C 150.483 170.950,159.924 161.277,167.319 161.213 C 168.843 161.200,170.756 162.673,170.787 163.884 C 170.826 165.360,175.615 168.800,177.632 168.800 C 179.926 168.800,179.258 165.936,176.652 164.596 C 175.280 163.891,173.200 161.405,173.200 160.472 C 173.200 159.525,176.860 156.421,179.372 155.238 C 182.087 153.960,182.241 153.936,186.857 154.067 C 190.927 154.182,191.667 154.104,192.271 153.500 C 192.985 152.786,194.598 152.550,194.944 153.109 M196.600 185.667 C 195.500 185.884,194.060 186.312,193.400 186.617 C 192.740 186.923,191.705 187.288,191.100 187.430 C 190.495 187.571,190.000 187.835,190.000 188.016 C 190.000 188.198,189.632 188.463,189.183 188.605 C 188.229 188.908,188.435 190.157,189.627 191.294 C 190.309 191.945,190.437 191.947,191.677 191.325 C 192.405 190.960,193.478 190.422,194.062 190.131 C 194.646 189.839,195.559 189.600,196.090 189.600 C 196.622 189.600,197.913 189.309,198.958 188.952 C 200.906 188.289,201.739 188.339,205.380 189.336 C 214.722 191.895,214.300 209.948,204.822 213.252 C 204.150 213.487,203.600 213.826,203.600 214.007 C 203.600 214.188,203.060 214.455,202.400 214.600 C 200.916 214.926,200.560 217.743,201.947 218.183 C 202.780 218.448,204.580 217.880,204.985 217.225 C 205.129 216.991,205.526 216.800,205.866 216.800 C 208.615 216.800,215.600 207.923,215.600 204.431 C 215.600 203.141,216.302 199.793,216.776 198.824 C 217.820 196.687,222.520 198.166,224.807 201.350 C 226.478 203.677,229.200 203.724,229.200 201.425 C 229.200 200.225,224.976 195.760,223.487 195.386 C 222.885 195.235,222.294 194.951,222.173 194.756 C 222.052 194.560,220.523 194.400,218.776 194.400 C 215.466 194.400,214.000 193.721,214.000 192.186 C 214.000 190.817,208.639 186.113,206.762 185.835 C 203.494 185.351,198.613 185.270,196.600 185.667 M142.509 203.862 C 145.444 205.364,160.833 205.466,162.605 203.996 C 163.611 203.161,164.112 204.266,163.811 206.656 C 162.865 214.153,163.935 218.584,167.763 223.030 C 169.379 224.907,170.000 226.322,170.000 228.126 C 170.000 232.188,172.076 237.762,174.626 240.545 C 175.382 241.370,176.000 242.305,176.000 242.622 C 176.000 243.431,172.674 243.412,172.000 242.600 C 171.726 242.270,171.177 242.000,170.780 242.000 C 170.382 242.000,169.786 241.729,169.455 241.398 C 168.463 240.406,167.133 240.576,164.600 242.018 C 161.667 243.688,154.030 244.098,151.896 242.700 C 151.309 242.315,150.562 242.000,150.236 242.000 C 149.502 242.000,144.400 236.953,144.400 236.227 C 144.400 235.936,144.130 235.474,143.800 235.200 C 143.470 234.926,143.200 234.268,143.200 233.738 C 143.200 233.208,142.937 232.146,142.616 231.377 C 141.663 229.095,142.075 228.708,145.153 228.994 C 149.142 229.366,149.454 229.485,150.130 230.896 C 151.242 233.212,155.987 237.200,157.632 237.200 C 159.305 237.200,158.390 234.218,156.052 232.048 C 153.087 229.296,153.011 228.616,155.485 226.990 C 158.012 225.328,158.331 224.731,157.260 223.660 C 156.190 222.590,155.412 222.575,154.109 223.600 C 153.550 224.040,152.801 224.406,152.446 224.413 C 152.091 224.420,151.451 224.690,151.024 225.013 C 149.270 226.339,143.790 225.328,141.650 223.282 C 141.258 222.907,140.501 222.207,139.969 221.728 C 135.402 217.615,134.176 209.421,137.328 204.074 C 138.187 202.617,139.937 202.546,142.509 203.862 M196.538 248.329 C 196.326 248.989,195.764 250.330,194.622 252.900 C 194.305 253.615,193.303 256.000,192.395 258.200 C 190.000 264.009,189.620 264.883,188.978 266.062 C 188.660 266.646,188.400 267.396,188.400 267.729 C 188.400 268.063,188.135 268.845,187.811 269.468 C 187.486 270.090,186.922 271.320,186.557 272.200 C 186.193 273.080,185.584 274.520,185.205 275.400 C 184.826 276.280,183.758 278.800,182.833 281.000 C 181.908 283.200,181.000 285.360,180.814 285.800 C 180.629 286.240,179.726 288.400,178.808 290.600 C 177.890 292.800,176.903 295.140,176.614 295.800 C 175.176 299.085,174.800 300.071,174.800 300.560 C 174.800 300.852,174.440 301.550,174.000 302.109 C 173.560 302.669,173.200 303.492,173.200 303.939 C 173.200 304.387,173.040 304.852,172.845 304.972 C 172.223 305.357,172.089 302.678,172.616 300.400 C 173.205 297.851,174.917 288.602,175.836 283.000 C 176.258 280.429,177.689 272.461,178.208 269.800 C 179.423 263.561,180.131 259.697,180.406 257.800 C 181.871 247.718,182.148 247.032,184.600 247.435 C 186.539 247.753,191.999 247.640,194.200 247.236 C 195.984 246.908,196.861 247.318,196.538 248.329 " stroke="none" fill="#3c4c5c" fill-rule="evenodd"></path><path id="path2" d="M189.919 76.400 C 179.106 76.619,179.388 76.547,178.842 79.216 C 178.641 80.197,178.292 81.540,178.066 82.200 C 177.696 83.279,177.232 84.946,175.364 91.900 C 174.015 96.924,173.610 98.349,172.828 100.828 C 172.373 102.274,172.000 103.899,172.000 104.439 C 172.000 104.980,171.757 105.777,171.460 106.211 C 171.162 106.645,170.802 107.882,170.659 108.960 C 170.516 110.037,170.227 111.126,170.017 111.379 C 169.807 111.633,169.512 112.641,169.362 113.620 C 169.212 114.599,168.844 115.886,168.544 116.480 C 168.245 117.074,167.999 118.064,167.998 118.680 C 167.996 119.296,167.726 120.316,167.398 120.946 C 167.069 121.576,166.800 122.435,166.800 122.856 C 166.800 123.276,166.440 124.644,166.000 125.896 C 165.560 127.148,165.200 128.563,165.200 129.040 C 165.200 129.518,164.931 130.424,164.602 131.054 C 164.274 131.684,164.004 132.547,164.002 132.972 C 164.001 133.396,163.618 134.873,163.152 136.254 C 162.641 137.767,162.406 139.168,162.560 139.782 L 162.815 140.800 181.656 140.800 L 200.496 140.800 200.267 143.100 C 200.005 145.737,199.138 150.756,198.373 154.068 C 197.393 158.304,200.023 159.020,203.845 155.559 C 205.085 154.436,206.695 153.269,207.422 152.965 C 208.150 152.661,208.858 152.229,208.996 152.006 C 209.134 151.783,209.606 151.600,210.043 151.600 C 210.481 151.600,211.397 151.312,212.079 150.959 C 213.005 150.480,214.403 150.327,217.613 150.353 C 221.323 150.383,222.045 150.279,222.917 149.594 C 223.472 149.157,224.101 148.800,224.314 148.800 C 224.527 148.800,224.922 148.535,225.191 148.211 C 225.460 147.886,226.337 147.503,227.140 147.358 C 227.943 147.214,228.853 146.894,229.162 146.648 C 229.500 146.378,231.658 146.185,234.598 146.163 C 239.582 146.125,240.400 145.962,240.400 145.009 C 240.400 144.710,240.648 143.955,240.951 143.332 C 241.829 141.528,242.686 139.566,243.629 137.200 C 244.112 135.990,244.860 134.190,245.292 133.200 C 245.724 132.210,246.352 130.770,246.687 130.000 C 247.023 129.230,247.546 128.090,247.849 127.468 C 248.152 126.845,248.400 126.063,248.400 125.729 C 248.400 125.396,248.656 124.646,248.969 124.062 C 250.121 121.913,251.200 119.330,251.200 118.723 C 251.200 118.379,251.470 117.874,251.800 117.600 C 252.130 117.326,252.400 116.829,252.400 116.495 C 252.400 115.945,253.027 114.443,254.702 110.984 C 256.140 108.016,257.719 108.224,232.028 108.000 C 208.672 107.797,207.955 107.744,209.283 106.346 C 209.569 106.046,210.313 104.810,210.938 103.600 C 211.562 102.390,212.769 100.140,213.619 98.600 C 214.469 97.060,215.437 95.260,215.770 94.600 C 216.103 93.940,217.002 92.320,217.767 91.000 C 218.532 89.680,219.725 87.520,220.419 86.200 C 221.112 84.880,222.098 83.080,222.610 82.200 C 224.506 78.940,225.292 77.133,224.950 76.820 C 224.496 76.405,202.627 76.143,189.919 76.400 M194.200 247.236 C 191.999 247.640,186.539 247.753,184.600 247.435 C 182.148 247.032,181.871 247.718,180.406 257.800 C 180.131 259.697,179.423 263.561,178.208 269.800 C 177.689 272.461,176.258 280.429,175.836 283.000 C 174.917 288.602,173.205 297.851,172.616 300.400 C 172.089 302.678,172.223 305.357,172.845 304.972 C 173.040 304.852,173.200 304.387,173.200 303.939 C 173.200 303.492,173.560 302.669,174.000 302.109 C 174.440 301.550,174.800 300.852,174.800 300.560 C 174.800 300.071,175.176 299.085,176.614 295.800 C 176.903 295.140,177.890 292.800,178.808 290.600 C 179.726 288.400,180.629 286.240,180.814 285.800 C 181.000 285.360,181.908 283.200,182.833 281.000 C 183.758 278.800,184.826 276.280,185.205 275.400 C 185.584 274.520,186.193 273.080,186.557 272.200 C 186.922 271.320,187.486 270.090,187.811 269.468 C 188.135 268.845,188.400 268.063,188.400 267.729 C 188.400 267.396,188.660 266.646,188.978 266.062 C 189.620 264.883,190.000 264.009,192.395 258.200 C 193.303 256.000,194.305 253.615,194.622 252.900 C 197.226 247.041,197.199 246.685,194.200 247.236 " stroke="none" fill="#5bda7b" fill-rule="evenodd"></path><path id="path3" d="M233.300 150.287 C 233.905 150.378,234.895 150.378,235.500 150.287 C 236.105 150.195,235.610 150.120,234.400 150.120 C 233.190 150.120,232.695 150.195,233.300 150.287 M229.427 150.756 C 229.306 150.951,228.714 151.235,228.111 151.387 C 224.951 152.180,222.218 155.641,220.779 160.674 C 219.168 166.306,219.605 167.040,224.732 167.308 C 227.431 167.449,228.342 167.382,228.026 167.066 C 227.785 166.825,226.106 166.532,224.294 166.414 L 221.000 166.200 220.865 165.009 C 220.310 160.133,223.504 154.048,227.600 152.175 C 231.503 150.391,231.457 150.419,230.524 150.409 C 230.042 150.404,229.548 150.560,229.427 150.756 M238.600 151.222 C 239.480 151.638,240.412 151.984,240.672 151.990 C 241.235 152.002,245.547 156.137,246.635 157.708 C 247.406 158.822,248.686 159.219,253.400 159.808 L 255.000 160.008 253.600 159.434 C 252.830 159.119,251.329 158.847,250.264 158.830 C 248.599 158.804,248.179 158.622,247.264 157.534 C 244.078 153.741,242.937 152.734,240.556 151.609 C 239.149 150.944,237.773 150.415,237.499 150.432 C 237.225 150.450,237.720 150.805,238.600 151.222 M191.882 154.459 C 190.860 155.222,190.608 155.250,188.965 154.790 C 184.724 153.603,177.969 155.508,175.188 158.675 C 173.428 160.679,174.202 163.043,176.942 164.033 C 178.614 164.638,179.307 165.777,179.131 167.631 C 178.821 170.880,173.563 168.860,170.326 164.248 L 168.676 161.896 166.101 162.136 C 159.214 162.779,151.201 171.444,155.683 173.400 C 156.669 173.830,159.451 177.685,159.725 179.000 C 159.851 179.606,159.904 179.545,159.946 178.749 C 159.975 178.171,159.730 177.474,159.400 177.200 C 159.070 176.926,158.793 176.499,158.784 176.251 C 158.760 175.606,156.763 173.398,155.700 172.842 C 154.799 172.371,154.389 170.400,155.192 170.400 C 155.408 170.400,155.694 169.966,155.827 169.434 C 156.126 168.243,159.648 164.914,161.894 163.700 C 163.690 162.729,169.200 162.364,169.200 163.216 C 169.200 164.175,172.882 168.400,173.718 168.400 C 173.904 168.400,174.336 168.679,174.676 169.019 C 175.113 169.455,175.902 169.603,177.348 169.519 L 179.400 169.400 179.521 167.514 C 179.674 165.137,179.129 164.108,177.491 163.684 C 173.974 162.774,174.113 158.746,177.716 157.185 C 178.202 156.974,178.870 156.643,179.200 156.449 C 181.932 154.842,187.117 154.330,189.105 155.471 C 190.224 156.113,190.336 156.105,191.685 155.271 C 193.516 154.140,193.525 154.142,193.709 155.900 C 193.852 157.274,193.871 157.241,193.933 155.500 C 194.009 153.347,193.630 153.155,191.882 154.459 M212.000 155.267 C 209.353 156.226,207.572 157.493,205.291 160.041 L 203.582 161.949 200.291 161.961 C 198.481 161.967,196.460 162.142,195.800 162.349 C 194.923 162.625,195.819 162.702,199.129 162.637 L 203.659 162.548 205.029 161.052 C 205.783 160.229,206.402 159.430,206.405 159.278 C 206.414 158.765,210.821 156.000,211.629 156.000 C 212.069 156.000,212.858 155.718,213.383 155.374 C 213.927 155.018,214.941 154.802,215.735 154.874 L 217.131 155.000 216.523 156.600 C 216.189 157.480,215.843 158.830,215.754 159.600 C 215.636 160.627,215.805 160.361,216.389 158.600 C 216.827 157.280,217.360 155.901,217.573 155.536 C 218.373 154.170,215.421 154.027,212.000 155.267 M192.329 157.884 C 191.740 157.974,191.043 158.307,190.780 158.624 C 190.517 158.941,190.071 159.200,189.790 159.200 C 189.224 159.200,187.104 160.926,184.612 163.415 C 183.723 164.303,182.276 166.504,181.398 168.305 C 180.043 171.082,179.648 171.583,178.800 171.602 C 175.974 171.666,169.755 176.136,167.392 179.800 C 166.127 181.763,164.826 184.549,164.813 185.325 C 164.806 185.724,164.507 186.947,164.148 188.044 C 163.592 189.744,163.567 190.402,163.978 192.519 C 164.243 193.883,164.553 195.842,164.666 196.870 L 164.873 198.740 162.937 199.028 C 160.619 199.373,157.810 200.331,159.000 200.370 C 159.440 200.385,160.954 200.071,162.364 199.672 C 165.451 198.800,165.689 198.347,164.924 194.800 C 162.837 185.123,169.692 173.906,178.827 172.050 C 180.061 171.799,180.359 171.449,181.773 168.585 C 183.512 165.062,187.422 160.768,189.792 159.778 C 190.536 159.467,191.258 159.029,191.396 158.806 C 191.534 158.583,191.986 158.400,192.400 158.400 C 192.814 158.400,193.264 158.220,193.400 158.000 C 193.536 157.780,193.592 157.627,193.524 157.660 C 193.456 157.693,192.918 157.794,192.329 157.884 M257.403 161.570 C 261.527 164.270,263.554 167.749,264.350 173.489 C 264.538 174.841,264.985 175.963,265.620 176.671 C 266.159 177.272,266.780 177.965,267.000 178.211 C 268.512 179.902,270.044 185.701,269.568 187.928 C 268.874 191.175,268.480 192.290,267.446 193.928 C 266.310 195.727,265.301 196.410,264.851 195.683 C 264.704 195.445,264.137 195.059,263.592 194.826 C 263.046 194.593,262.330 194.243,262.000 194.049 C 261.670 193.856,260.725 193.408,259.900 193.055 C 256.677 191.675,259.765 186.541,264.200 185.907 C 264.874 185.810,265.019 185.440,265.118 183.560 C 265.261 180.865,264.660 180.093,262.913 180.731 L 261.800 181.137 263.092 181.168 C 265.450 181.226,265.574 185.103,263.237 185.705 C 258.475 186.931,255.991 192.938,259.921 193.724 C 260.567 193.853,262.042 194.517,263.198 195.199 C 265.751 196.704,266.263 196.639,267.626 194.632 C 271.154 189.437,270.804 182.651,266.728 177.240 C 265.341 175.399,264.800 174.314,264.800 173.376 C 264.800 169.289,260.122 161.212,257.749 161.202 C 257.501 161.201,257.074 160.930,256.800 160.600 C 256.526 160.270,256.011 160.000,255.654 160.000 C 255.298 160.000,256.085 160.706,257.403 161.570 M215.344 164.800 C 215.344 166.890,215.412 167.745,215.494 166.700 C 215.576 165.655,215.576 163.945,215.494 162.900 C 215.412 161.855,215.344 162.710,215.344 164.800 M192.800 163.400 C 192.526 163.730,192.093 164.000,191.837 164.000 C 191.299 164.000,187.200 168.050,187.200 168.581 C 187.200 168.777,186.901 169.267,186.536 169.671 C 186.170 170.075,185.977 170.511,186.107 170.640 C 186.236 170.770,186.783 170.184,187.321 169.338 C 188.729 167.127,190.122 165.737,192.497 164.173 C 193.643 163.418,194.293 162.800,193.940 162.800 C 193.587 162.800,193.074 163.070,192.800 163.400 M229.800 167.997 C 230.948 168.298,233.329 169.453,234.972 170.506 C 237.630 172.209,241.737 177.452,241.526 178.874 C 241.443 179.439,240.840 179.965,239.747 180.428 L 238.094 181.127 236.204 178.626 C 235.165 177.250,233.696 175.608,232.939 174.977 C 228.534 171.304,220.173 170.834,223.438 174.442 C 224.742 175.883,221.422 178.687,219.970 177.373 C 219.210 176.685,217.262 172.940,216.239 170.200 C 215.819 169.077,215.635 168.864,215.621 169.486 C 215.601 170.311,216.433 172.614,217.251 174.000 C 217.446 174.330,217.724 174.870,217.869 175.200 C 219.413 178.709,221.211 179.143,223.614 176.585 C 224.565 175.573,224.571 175.524,223.893 174.343 C 222.881 172.580,222.998 172.400,225.149 172.400 C 227.836 172.400,233.558 175.182,234.321 176.860 C 234.388 177.006,234.793 177.530,235.221 178.024 C 235.649 178.518,236.006 179.030,236.013 179.161 C 236.066 180.160,238.124 181.674,238.927 181.303 C 239.407 181.081,240.295 180.701,240.900 180.458 C 244.820 178.886,234.789 167.444,229.663 167.641 C 228.609 167.682,228.611 167.685,229.800 167.997 M185.660 171.667 C 185.418 174.354,184.116 175.893,181.842 176.177 C 180.616 176.331,179.521 176.603,179.410 176.784 C 179.299 176.964,178.738 177.229,178.164 177.373 C 175.989 177.919,170.800 182.746,170.800 184.223 C 170.800 184.364,170.506 185.098,170.148 185.854 C 169.789 186.610,169.579 187.312,169.680 187.414 C 169.782 187.516,170.095 187.104,170.375 186.499 C 171.940 183.124,172.738 181.844,174.061 180.591 C 174.868 179.826,175.666 179.200,175.833 179.200 C 176.000 179.200,176.421 178.961,176.769 178.668 C 177.613 177.956,180.679 176.847,182.805 176.484 C 184.788 176.146,186.195 174.155,185.888 172.121 C 185.796 171.504,185.693 171.300,185.660 171.667 M149.313 176.392 C 142.710 177.939,137.957 183.937,137.895 190.800 C 137.825 198.625,141.143 200.876,152.521 200.724 L 158.200 200.648 152.000 200.424 C 148.590 200.301,145.440 199.999,145.000 199.753 C 144.560 199.507,143.570 199.186,142.800 199.039 C 141.226 198.741,139.600 197.558,139.600 196.712 C 139.600 196.405,139.336 195.804,139.013 195.376 C 138.167 194.258,138.157 187.100,139.000 186.400 C 139.330 186.126,139.600 185.578,139.600 185.182 C 139.600 183.595,143.768 179.024,146.000 178.164 C 146.330 178.036,147.281 177.647,148.113 177.299 C 152.034 175.660,155.200 178.605,155.200 183.894 C 155.200 186.740,155.452 187.210,156.943 187.146 C 158.040 187.098,158.073 187.067,157.200 186.905 C 155.860 186.656,155.613 186.168,155.606 183.751 C 155.592 179.007,152.681 175.603,149.313 176.392 M160.297 183.250 L 160.502 186.699 159.351 187.118 C 158.718 187.348,158.413 187.551,158.674 187.568 C 160.788 187.709,162.336 184.129,160.831 182.580 C 160.628 182.371,160.378 181.660,160.276 181.000 C 160.175 180.340,160.184 181.352,160.297 183.250 M258.158 182.120 C 256.275 183.455,253.606 186.632,253.587 187.561 C 253.580 187.913,253.310 188.549,252.987 188.976 C 252.664 189.404,252.400 190.247,252.400 190.850 C 252.400 191.708,252.181 191.985,251.395 192.122 C 250.470 192.284,250.478 192.294,251.492 192.249 C 252.262 192.215,252.632 191.959,252.724 191.400 C 252.796 190.960,253.112 190.033,253.427 189.340 C 253.742 188.646,254.000 187.959,254.000 187.812 C 254.000 186.303,257.824 182.656,260.354 181.752 L 261.800 181.235 260.600 181.237 C 259.940 181.238,258.841 181.635,258.158 182.120 M195.200 184.868 C 192.126 185.830,189.416 187.046,187.922 188.133 L 186.844 188.918 187.722 190.487 C 188.946 192.674,190.405 193.412,191.660 192.479 C 192.177 192.094,193.676 191.425,194.992 190.993 C 196.390 190.534,197.077 190.149,196.646 190.066 C 196.240 189.988,195.299 190.211,194.554 190.562 C 193.809 190.913,192.557 191.506,191.770 191.879 C 190.730 192.373,190.162 192.446,189.686 192.145 C 188.878 191.636,187.515 189.262,187.782 188.829 C 188.109 188.301,193.898 185.600,194.704 185.600 C 195.118 185.600,196.294 185.315,197.316 184.967 C 200.226 183.975,208.662 185.001,209.133 186.403 C 209.207 186.621,209.495 186.800,209.774 186.800 C 210.702 186.800,214.400 190.944,214.400 191.984 C 214.400 193.326,216.006 194.000,219.208 194.000 C 222.769 194.000,224.410 194.722,226.931 197.395 C 230.529 201.211,230.642 202.869,227.356 203.610 C 226.073 203.899,225.932 203.815,224.558 201.942 C 220.992 197.084,217.224 197.131,216.629 202.041 C 216.327 204.535,215.564 207.262,214.728 208.841 C 211.481 214.971,202.092 221.083,200.812 217.900 C 200.457 217.017,200.450 217.016,200.425 217.851 C 200.369 219.741,203.211 219.947,205.600 218.225 C 205.930 217.988,206.847 217.466,207.638 217.067 C 210.722 215.510,215.245 210.034,216.059 206.872 C 216.267 206.062,216.597 205.040,216.792 204.600 C 216.987 204.160,217.260 202.783,217.397 201.540 C 217.839 197.556,222.612 198.765,225.149 203.504 C 225.997 205.089,229.735 204.101,230.099 202.195 C 230.391 200.666,226.002 194.800,224.566 194.800 C 224.308 194.800,223.874 194.530,223.600 194.200 C 223.227 193.751,222.227 193.600,219.620 193.600 L 216.139 193.600 214.369 190.939 C 210.247 184.738,202.976 182.436,195.200 184.868 M169.334 190.800 C 169.334 192.450,169.405 193.125,169.491 192.300 C 169.578 191.475,169.578 190.125,169.491 189.300 C 169.405 188.475,169.334 189.150,169.334 190.800 M198.800 189.600 C 197.845 189.801,198.672 189.897,201.400 189.901 C 204.520 189.907,205.048 189.835,203.800 189.577 C 201.926 189.189,200.724 189.195,198.800 189.600 M206.925 191.100 C 213.550 196.066,212.723 206.532,205.280 211.900 C 204.594 212.395,203.777 212.800,203.465 212.800 C 203.153 212.800,202.674 213.070,202.400 213.400 C 202.126 213.730,201.688 214.000,201.427 214.000 C 200.278 214.000,199.549 214.994,199.954 216.010 L 200.349 217.000 200.375 215.929 C 200.396 215.026,200.762 214.688,202.700 213.774 C 208.916 210.844,211.303 207.429,211.521 201.154 C 211.708 195.738,208.903 190.000,206.067 190.000 C 205.729 190.000,206.110 190.489,206.925 191.100 M247.376 192.987 C 246.373 193.747,247.137 193.761,248.854 193.016 C 250.114 192.469,250.135 192.430,249.176 192.416 C 248.614 192.407,247.804 192.664,247.376 192.987 M244.000 194.417 C 242.654 195.159,241.738 195.744,240.583 196.600 C 239.428 197.456,239.520 198.936,240.812 200.302 C 242.099 201.661,243.366 201.760,244.800 200.612 C 247.415 198.520,252.554 197.309,255.766 198.027 C 256.935 198.289,258.141 198.417,258.446 198.312 C 258.751 198.208,257.767 197.838,256.259 197.491 C 253.067 196.757,248.964 197.529,245.952 199.430 C 242.930 201.338,242.368 201.404,241.138 199.995 C 239.755 198.412,241.450 195.200,243.668 195.200 C 243.840 195.200,244.570 194.841,245.290 194.401 C 246.965 193.380,245.857 193.394,244.000 194.417 M169.600 194.660 C 169.600 196.065,171.337 198.738,173.109 200.058 C 179.751 205.006,186.674 205.659,193.562 201.988 C 196.279 200.540,196.912 200.710,198.220 203.239 C 198.986 204.719,196.919 206.208,191.626 207.991 C 187.538 209.368,177.783 208.733,175.556 206.944 C 175.250 206.699,174.550 206.362,174.000 206.196 C 173.450 206.029,172.304 205.346,171.454 204.677 L 169.909 203.460 169.168 204.430 C 166.886 207.418,167.472 216.448,170.142 219.457 C 170.394 219.741,171.474 220.924,172.543 222.087 L 174.486 224.200 174.562 228.400 C 174.724 237.296,180.364 243.000,189.000 243.000 C 194.610 243.000,196.573 242.024,196.183 239.429 C 195.857 237.252,196.603 232.295,197.472 230.874 C 200.119 226.541,201.841 225.038,203.029 226.024 C 203.343 226.285,203.600 226.687,203.600 226.917 C 203.600 227.148,203.901 227.670,204.270 228.077 C 204.902 228.776,204.871 228.890,203.713 230.109 C 200.908 233.061,199.749 238.639,201.500 240.759 C 204.961 244.947,216.674 243.232,220.406 237.991 C 220.897 237.302,221.682 236.583,222.149 236.394 C 222.961 236.066,222.963 236.050,222.200 236.034 C 221.728 236.025,220.684 236.834,219.654 238.009 C 218.693 239.104,217.652 240.000,217.341 240.000 C 217.030 240.000,216.671 240.270,216.545 240.600 C 216.418 240.930,216.019 241.201,215.657 241.202 C 215.296 241.204,214.460 241.495,213.800 241.849 C 210.899 243.405,204.300 242.681,201.943 240.548 C 200.158 238.933,201.320 233.270,204.050 230.280 C 205.449 228.749,205.447 228.849,204.129 226.836 C 203.411 225.740,202.767 225.200,202.176 225.200 C 201.182 225.200,198.182 227.995,197.765 229.311 C 197.616 229.779,197.261 230.396,196.976 230.681 C 196.691 230.966,196.334 232.192,196.182 233.405 C 196.031 234.618,195.748 235.709,195.553 235.829 C 195.080 236.121,195.104 238.894,195.590 240.174 C 195.877 240.928,195.850 241.204,195.490 241.214 C 195.221 241.221,194.280 241.575,193.400 242.000 C 192.287 242.538,190.948 242.773,189.000 242.773 C 187.052 242.773,185.713 242.538,184.600 242.000 C 183.720 241.575,182.858 241.221,182.684 241.214 C 179.267 241.067,175.148 234.079,175.058 228.277 L 174.991 223.953 172.674 221.507 C 167.767 216.326,166.621 209.010,169.930 204.003 C 170.002 203.895,170.235 204.120,170.450 204.503 C 170.664 204.886,171.082 205.200,171.377 205.200 C 171.673 205.200,172.018 205.470,172.145 205.800 C 172.271 206.130,172.660 206.400,173.008 206.400 C 173.357 206.400,174.307 206.749,175.121 207.176 C 178.736 209.073,179.359 209.200,185.071 209.200 C 189.094 209.200,190.839 209.050,191.411 208.657 C 191.845 208.358,192.875 207.990,193.700 207.839 C 194.525 207.687,195.200 207.410,195.200 207.221 C 195.200 207.032,195.695 206.689,196.300 206.457 C 198.344 205.674,199.742 204.216,199.022 203.618 C 198.680 203.334,198.400 202.885,198.400 202.621 C 198.400 201.260,195.255 199.741,194.607 200.789 C 193.325 202.863,185.595 204.266,180.800 203.294 C 176.963 202.516,171.441 198.928,170.946 196.891 C 170.657 195.703,169.600 193.950,169.600 194.660 M259.600 199.000 C 259.874 199.330,260.301 199.606,260.549 199.613 C 262.704 199.673,264.837 204.820,264.062 208.093 C 263.107 212.131,263.055 212.835,263.836 211.200 C 265.712 207.271,264.543 201.706,261.382 199.520 C 259.631 198.310,258.834 198.077,259.600 199.000 M137.613 204.668 C 137.166 205.426,136.806 206.350,136.813 206.723 C 136.819 207.095,137.224 206.587,137.713 205.594 C 138.673 203.639,139.064 203.538,141.460 204.627 C 142.154 204.942,143.157 205.200,143.689 205.200 C 144.222 205.200,145.503 205.488,146.536 205.840 C 148.941 206.659,158.449 206.524,159.280 205.659 C 159.715 205.206,159.538 205.155,158.200 205.348 C 157.320 205.475,155.745 205.694,154.700 205.835 C 152.726 206.101,142.935 204.952,142.184 204.366 C 140.608 203.136,138.432 203.280,137.613 204.668 M161.533 205.095 C 162.996 205.225,163.216 205.355,162.944 205.925 C 160.916 210.169,163.117 219.477,167.259 224.175 C 168.984 226.131,169.001 226.180,169.145 229.571 C 169.239 231.794,169.500 233.275,169.891 233.797 C 170.470 234.572,170.481 234.565,170.197 233.600 C 170.036 233.050,169.779 231.160,169.628 229.400 C 169.335 225.999,168.997 225.064,167.600 223.800 C 163.834 220.392,162.044 212.806,163.423 206.100 L 163.691 204.800 161.745 204.870 L 159.800 204.940 161.533 205.095 M136.276 209.300 C 136.158 210.235,136.204 211.900,136.377 213.000 C 136.662 214.801,136.698 214.633,136.747 211.300 C 136.804 207.330,136.622 206.558,136.276 209.300 M230.800 213.331 C 227.776 214.921,227.988 214.565,228.794 216.695 C 229.347 218.157,229.734 218.622,230.457 218.696 C 231.361 218.788,231.365 218.777,230.557 218.430 C 230.026 218.202,229.559 217.454,229.292 216.405 L 228.870 214.741 230.668 213.971 C 233.183 212.893,237.863 212.922,240.800 214.033 C 242.893 214.825,247.198 217.703,247.202 218.313 C 247.203 218.471,247.752 219.185,248.422 219.900 C 251.290 222.960,259.735 219.624,262.414 214.373 C 263.431 212.378,263.106 212.336,261.855 214.300 C 260.280 216.773,258.646 218.255,256.400 219.248 C 255.850 219.491,254.922 219.940,254.338 220.245 C 251.987 221.474,249.839 221.000,248.235 218.900 C 247.437 217.855,246.113 216.550,245.292 216.001 C 244.472 215.451,243.562 214.776,243.271 214.501 C 242.981 214.225,242.441 213.994,242.071 213.987 C 241.702 213.980,241.051 213.710,240.624 213.387 C 239.597 212.611,232.249 212.569,230.800 213.331 M136.800 215.436 C 136.800 217.868,141.159 222.871,144.508 224.281 C 147.831 225.681,148.732 225.557,154.181 222.948 L 156.162 222.000 157.479 223.276 C 159.062 224.811,158.804 225.472,155.875 227.396 C 154.803 228.100,154.117 228.824,154.224 229.140 C 154.533 230.057,156.174 231.955,156.678 231.978 C 159.078 232.089,160.022 237.192,157.704 237.526 C 156.222 237.739,150.400 233.625,150.400 232.364 C 150.400 231.353,148.243 229.604,147.064 229.660 C 145.868 229.717,145.859 229.729,146.891 229.886 C 147.492 229.977,148.390 230.583,148.891 231.237 C 154.430 238.464,158.626 239.938,159.822 235.078 C 160.110 233.906,158.840 232.000,157.771 232.000 C 157.026 232.000,154.800 229.904,154.800 229.202 C 154.800 228.861,155.446 228.234,156.236 227.809 C 159.246 226.187,159.677 224.972,157.942 222.995 C 156.551 221.410,155.043 221.343,153.400 222.792 C 151.829 224.179,147.938 224.671,145.094 223.844 C 142.620 223.125,138.699 219.644,138.222 217.744 C 137.931 216.585,136.800 214.750,136.800 215.436 M232.600 218.400 C 231.786 218.607,232.673 218.721,235.353 218.753 C 240.519 218.815,244.000 220.739,244.000 223.532 C 244.000 225.536,241.502 230.975,240.029 232.177 C 239.495 232.613,238.614 233.381,238.071 233.885 C 237.528 234.388,236.854 234.800,236.575 234.800 C 236.295 234.800,236.007 234.970,235.933 235.178 C 235.657 235.961,229.583 236.891,227.755 236.430 C 225.059 235.752,223.327 235.905,225.600 236.621 C 233.519 239.116,241.892 233.950,244.217 225.135 C 245.448 220.468,239.050 216.759,232.600 218.400 M143.467 229.467 C 143.320 229.613,143.225 230.288,143.254 230.967 C 143.302 232.046,143.331 232.075,143.483 231.200 C 143.578 230.650,143.948 229.975,144.305 229.700 C 144.864 229.269,144.869 229.200,144.343 229.200 C 144.008 229.200,143.613 229.320,143.467 229.467 M143.600 233.287 C 143.600 233.845,143.870 234.526,144.200 234.800 C 144.530 235.074,144.800 235.538,144.800 235.831 C 144.800 236.876,149.079 240.756,151.448 241.859 C 155.353 243.678,160.383 243.516,164.480 241.439 L 167.559 239.878 170.555 241.339 C 174.985 243.500,176.401 243.318,174.161 240.876 C 173.416 240.064,172.265 238.326,171.603 237.014 C 170.941 235.702,170.400 234.946,170.400 235.335 C 170.400 236.140,171.863 238.965,172.886 240.136 C 173.264 240.568,173.471 241.084,173.348 241.284 C 173.103 241.681,170.722 241.286,170.400 240.795 C 169.589 239.558,167.215 239.266,165.798 240.227 C 165.010 240.762,164.185 241.200,163.966 241.200 C 163.747 241.200,162.862 241.560,162.000 242.000 C 159.872 243.085,155.658 243.081,153.256 241.991 C 152.297 241.556,151.326 241.200,151.098 241.200 C 149.713 241.200,146.373 237.717,144.804 234.636 C 143.869 232.801,143.600 232.499,143.600 233.287 " stroke="none" fill="#9cacb3" fill-rule="evenodd"></path><path id="path4" d="M230.732 149.868 C 229.704 149.963,228.647 150.302,228.383 150.621 C 228.118 150.939,227.601 151.200,227.232 151.200 C 224.141 151.200,220.046 157.978,219.699 163.667 C 219.447 167.806,219.527 167.870,225.104 168.069 C 228.707 168.198,230.065 168.400,230.806 168.919 C 231.340 169.293,232.015 169.600,232.305 169.600 C 233.506 169.600,240.000 175.546,240.000 176.645 C 240.000 176.896,240.270 177.326,240.600 177.600 C 241.584 178.417,241.289 179.204,239.757 179.844 C 238.963 180.176,238.276 180.391,238.231 180.323 C 238.186 180.256,237.448 179.300,236.592 178.200 C 235.207 176.420,234.542 175.737,232.436 173.932 C 230.834 172.559,228.835 171.897,225.707 171.704 C 221.900 171.469,221.341 171.915,222.574 174.204 C 223.349 175.643,222.624 177.200,221.181 177.200 C 220.378 177.200,218.800 175.559,218.800 174.723 C 218.800 174.379,218.530 173.874,218.200 173.600 C 217.870 173.326,217.600 172.850,217.600 172.541 C 217.600 172.232,217.240 170.956,216.800 169.704 C 215.459 165.888,216.011 159.989,218.112 155.674 C 218.908 154.039,214.072 153.153,212.176 154.587 C 211.749 154.910,211.111 155.180,210.758 155.187 C 209.936 155.204,206.689 157.677,204.921 159.635 C 203.557 161.145,203.553 161.146,199.878 161.297 C 197.855 161.380,195.570 161.689,194.800 161.984 C 194.030 162.280,193.220 162.591,193.000 162.676 C 191.257 163.352,186.800 167.326,186.800 168.205 C 186.800 168.444,186.575 168.865,186.300 169.139 C 186.025 169.414,185.345 170.935,184.788 172.519 L 183.776 175.400 181.388 175.819 C 177.204 176.554,173.581 178.871,171.412 182.200 C 169.489 185.150,169.157 186.200,169.003 189.800 L 168.849 193.400 169.170 190.107 C 169.346 188.297,169.672 186.587,169.896 186.307 C 170.119 186.028,170.439 185.353,170.607 184.808 C 171.425 182.150,175.634 178.008,178.164 177.373 C 178.738 177.229,179.299 176.964,179.410 176.784 C 179.521 176.603,180.616 176.331,181.842 176.177 C 184.234 175.879,184.973 174.965,185.775 171.312 C 185.927 170.621,186.310 169.841,186.626 169.579 C 186.942 169.317,187.200 168.893,187.200 168.637 C 187.200 168.051,191.274 164.000,191.864 164.000 C 192.105 164.000,192.502 163.759,192.746 163.465 C 193.409 162.666,197.398 161.897,200.675 161.935 L 203.565 161.969 205.283 160.050 C 207.621 157.438,209.366 156.221,212.186 155.235 C 215.402 154.110,218.583 154.175,217.665 155.347 C 214.118 159.873,215.670 173.841,220.132 177.544 C 221.496 178.675,224.618 175.746,223.438 174.442 C 220.173 170.834,228.534 171.304,232.939 174.977 C 233.696 175.608,235.165 177.250,236.204 178.626 L 238.094 181.127 239.747 180.428 C 241.889 179.521,242.022 178.557,240.342 176.115 C 236.238 170.151,230.758 167.252,223.514 167.214 C 219.716 167.194,219.240 166.055,220.779 160.674 C 222.197 155.715,224.815 152.353,228.000 151.401 C 228.550 151.237,229.237 150.912,229.527 150.680 C 229.816 150.448,231.796 150.251,233.927 150.242 C 239.796 150.219,242.243 151.557,247.264 157.534 C 248.155 158.595,248.609 158.801,250.064 158.806 C 251.982 158.812,256.143 159.983,256.886 160.726 C 257.147 160.987,257.549 161.201,257.780 161.202 C 260.124 161.213,264.800 169.321,264.800 173.376 C 264.800 174.314,265.341 175.399,266.728 177.240 C 270.804 182.651,271.154 189.437,267.626 194.632 C 266.263 196.639,265.751 196.704,263.198 195.199 C 262.042 194.517,260.567 193.853,259.921 193.724 C 255.991 192.938,258.475 186.931,263.237 185.705 C 264.703 185.327,265.135 184.191,264.610 182.098 C 263.807 178.896,255.640 183.418,253.952 188.000 C 253.749 188.550,253.416 189.360,253.212 189.800 C 253.008 190.240,252.785 190.960,252.717 191.400 C 252.637 191.909,252.229 192.245,251.596 192.323 C 249.078 192.634,243.213 195.138,241.358 196.694 C 239.999 197.834,239.946 198.630,241.138 199.995 C 242.368 201.404,242.930 201.338,245.952 199.430 C 250.538 196.535,256.939 196.560,261.302 199.490 C 269.314 204.871,261.998 221.094,251.520 221.184 C 249.750 221.199,247.210 219.510,247.202 218.313 C 247.198 217.703,242.893 214.825,240.800 214.033 C 237.863 212.922,233.183 212.893,230.668 213.971 L 228.870 214.741 229.292 216.405 C 229.809 218.440,230.569 218.778,233.452 218.256 C 239.727 217.118,245.399 220.718,244.232 225.098 C 241.842 234.072,233.755 239.012,225.419 236.588 C 222.902 235.857,221.690 236.188,220.433 237.953 C 219.167 239.732,215.764 241.845,212.400 242.941 C 212.070 243.049,212.257 243.151,212.815 243.168 C 214.623 243.225,219.244 240.447,221.110 238.182 C 222.265 236.781,222.410 236.722,224.062 236.984 C 227.251 237.489,232.840 237.665,233.324 237.275 C 233.586 237.065,234.430 236.761,235.200 236.600 C 236.980 236.229,241.978 232.360,241.993 231.343 C 241.997 231.091,242.270 230.782,242.600 230.655 C 242.930 230.529,243.201 230.194,243.202 229.913 C 243.204 229.631,243.456 228.919,243.763 228.331 C 246.337 223.397,244.519 219.595,238.731 217.810 C 236.550 217.137,235.874 217.139,231.935 217.824 C 230.313 218.107,229.426 217.199,229.675 215.509 C 229.810 214.594,232.941 213.679,236.125 213.626 C 240.176 213.557,245.418 216.553,248.252 220.554 C 250.029 223.063,256.418 221.523,260.306 217.649 C 262.727 215.235,262.953 214.887,264.656 210.940 C 265.432 209.142,265.364 203.880,264.544 202.280 C 262.360 198.015,254.137 194.978,250.254 197.002 C 249.624 197.331,248.810 197.600,248.445 197.600 C 248.080 197.600,246.825 198.230,245.656 199.000 C 242.888 200.823,240.800 200.500,240.800 198.249 C 240.800 197.216,245.835 194.497,249.800 193.388 C 252.531 192.624,253.402 191.819,254.032 189.479 C 255.092 185.544,258.972 182.000,262.220 182.000 L 264.000 182.000 264.000 183.582 C 264.000 185.063,263.914 185.180,262.643 185.418 C 260.885 185.748,258.066 188.369,257.745 189.973 C 257.610 190.648,257.343 191.200,257.150 191.200 C 256.529 191.200,256.777 192.225,257.616 193.125 C 258.064 193.606,258.798 194.000,259.246 194.000 C 259.694 194.000,261.317 194.734,262.853 195.631 C 265.904 197.413,267.058 197.289,268.017 195.079 C 268.227 194.596,268.570 193.930,268.780 193.600 C 270.646 190.669,271.221 184.338,269.852 181.800 C 269.496 181.140,269.204 180.354,269.202 180.054 C 269.201 179.753,268.300 178.362,267.200 176.962 C 265.381 174.648,265.200 174.228,265.200 172.331 C 265.200 167.337,258.747 159.200,254.786 159.200 C 254.442 159.200,253.957 158.997,253.709 158.749 C 253.460 158.500,251.984 158.206,250.429 158.095 C 248.631 157.966,247.600 157.720,247.600 157.419 C 247.600 156.972,244.007 153.078,242.773 152.186 C 239.988 150.176,235.905 149.390,230.732 149.868 M192.271 153.500 C 191.667 154.104,190.927 154.182,186.857 154.067 C 182.241 153.936,182.087 153.960,179.372 155.238 C 176.860 156.421,173.200 159.525,173.200 160.472 C 173.200 161.405,175.280 163.891,176.652 164.596 C 179.258 165.936,179.926 168.800,177.632 168.800 C 175.615 168.800,170.826 165.360,170.787 163.884 C 170.756 162.673,168.843 161.200,167.319 161.213 C 159.924 161.277,150.483 170.950,155.134 173.698 C 157.835 175.293,159.557 179.171,159.582 183.718 L 159.600 186.836 158.100 186.566 C 155.974 186.182,156.000 186.222,156.000 183.338 C 156.000 179.808,153.799 175.956,151.825 176.032 C 151.249 176.054,151.181 176.129,151.600 176.282 C 153.711 177.054,155.597 180.569,155.606 183.751 C 155.614 186.329,155.829 186.643,157.800 186.955 C 160.471 187.378,160.633 187.061,160.120 182.436 C 159.637 178.086,157.787 174.318,155.683 173.400 C 151.201 171.444,159.214 162.779,166.101 162.136 L 168.676 161.896 170.326 164.248 C 173.563 168.860,178.821 170.880,179.131 167.631 C 179.307 165.777,178.614 164.638,176.942 164.033 C 174.202 163.043,173.428 160.679,175.188 158.675 C 177.966 155.510,184.725 153.603,188.958 154.788 C 190.595 155.247,190.853 155.217,191.937 154.445 C 193.631 153.239,194.000 153.378,194.000 155.226 C 194.000 157.231,193.414 158.400,192.410 158.400 C 191.990 158.400,191.534 158.583,191.396 158.806 C 191.258 159.029,190.536 159.467,189.792 159.778 C 187.422 160.768,183.512 165.062,181.773 168.585 C 180.359 171.449,180.061 171.799,178.827 172.050 C 169.692 173.906,162.837 185.123,164.924 194.800 C 165.932 199.474,164.250 200.343,153.527 200.691 C 141.368 201.085,137.799 198.827,137.888 190.800 C 137.965 183.929,142.696 177.960,149.313 176.388 L 150.600 176.082 149.200 176.054 C 148.430 176.038,147.451 176.290,147.024 176.613 C 146.596 176.936,145.923 177.200,145.527 177.200 C 144.302 177.200,139.824 181.967,138.585 184.591 C 137.178 187.571,136.890 194.953,138.128 196.320 C 138.498 196.729,138.800 197.242,138.800 197.462 C 138.800 199.025,144.248 201.020,149.600 201.418 C 158.481 202.077,167.999 199.409,165.879 196.854 C 165.059 195.866,165.246 185.639,166.107 184.411 C 166.488 183.867,166.800 183.190,166.800 182.907 C 166.800 180.148,176.008 172.400,179.286 172.400 C 180.292 172.400,181.536 171.201,181.807 169.970 C 182.041 168.902,184.136 165.454,185.688 163.582 C 186.509 162.592,190.069 160.000,190.609 160.000 C 190.880 160.000,191.317 159.741,191.580 159.424 C 191.843 159.107,192.446 158.792,192.920 158.724 C 193.771 158.602,195.453 153.933,194.944 153.109 C 194.598 152.550,192.985 152.786,192.271 153.500 M197.200 184.986 C 196.430 185.290,195.384 185.553,194.875 185.570 C 193.925 185.601,188.132 188.263,187.782 188.829 C 187.515 189.262,188.878 191.636,189.686 192.145 C 190.162 192.446,190.730 192.373,191.770 191.879 C 195.040 190.326,195.932 190.030,198.629 189.601 C 207.234 188.234,211.826 192.349,211.521 201.154 C 211.303 207.429,208.916 210.844,202.700 213.774 C 200.244 214.932,199.946 215.555,200.790 217.774 C 201.307 219.134,202.785 219.127,205.403 217.750 C 212.103 214.229,215.775 209.090,216.629 202.041 C 217.224 197.131,220.992 197.084,224.558 201.942 C 226.033 203.952,227.209 204.230,229.153 203.029 C 232.434 201.001,224.722 194.000,219.208 194.000 C 216.006 194.000,214.400 193.326,214.400 191.984 C 214.400 190.944,210.702 186.800,209.774 186.800 C 209.495 186.800,209.207 186.621,209.133 186.403 C 208.677 185.045,199.736 183.983,197.200 184.986 M206.762 185.835 C 208.639 186.113,214.000 190.817,214.000 192.186 C 214.000 193.721,215.466 194.400,218.776 194.400 C 220.523 194.400,222.052 194.560,222.173 194.756 C 222.294 194.951,222.885 195.235,223.487 195.386 C 224.976 195.760,229.200 200.225,229.200 201.425 C 229.200 203.724,226.478 203.677,224.807 201.350 C 222.520 198.166,217.820 196.687,216.776 198.824 C 216.302 199.793,215.600 203.141,215.600 204.431 C 215.600 207.923,208.615 216.800,205.866 216.800 C 205.526 216.800,205.129 216.991,204.985 217.225 C 204.580 217.880,202.780 218.448,201.947 218.183 C 200.560 217.743,200.916 214.926,202.400 214.600 C 203.060 214.455,203.600 214.188,203.600 214.007 C 203.600 213.826,204.150 213.487,204.822 213.252 C 214.300 209.948,214.722 191.895,205.380 189.336 C 201.739 188.339,200.906 188.289,198.958 188.952 C 197.913 189.309,196.622 189.600,196.090 189.600 C 195.559 189.600,194.646 189.839,194.062 190.131 C 193.478 190.422,192.405 190.960,191.677 191.325 C 190.437 191.947,190.309 191.945,189.627 191.294 C 188.435 190.157,188.229 188.908,189.183 188.605 C 189.632 188.463,190.000 188.198,190.000 188.016 C 190.000 187.835,190.495 187.571,191.100 187.430 C 191.705 187.288,192.740 186.923,193.400 186.617 C 196.152 185.344,201.384 185.038,206.762 185.835 M169.241 194.851 C 169.217 195.697,169.450 196.510,169.800 196.800 C 170.130 197.074,170.400 197.606,170.400 197.982 C 170.400 198.661,173.196 201.200,173.943 201.200 C 174.158 201.200,174.393 201.343,174.467 201.517 C 174.712 202.101,177.385 203.511,178.800 203.803 C 179.570 203.962,180.437 204.283,180.726 204.517 C 181.650 205.262,187.575 205.085,189.800 204.246 C 192.741 203.137,195.164 201.981,195.421 201.565 C 195.808 200.939,196.168 201.158,197.171 202.631 L 198.142 204.057 196.971 205.014 C 196.327 205.540,195.590 205.978,195.332 205.986 C 195.075 205.994,194.355 206.261,193.732 206.580 C 188.300 209.361,179.610 208.909,174.000 205.553 C 173.670 205.356,172.950 204.973,172.400 204.702 C 171.850 204.431,171.162 203.982,170.871 203.705 C 169.881 202.759,167.605 204.722,167.596 206.531 C 167.593 207.009,167.342 208.221,167.038 209.225 C 166.733 210.228,166.623 211.308,166.792 211.625 C 166.962 211.941,167.300 213.357,167.543 214.772 C 167.786 216.186,168.144 217.446,168.339 217.572 C 168.533 217.697,168.813 218.187,168.960 218.660 C 169.108 219.132,170.347 220.666,171.714 222.067 L 174.200 224.614 173.677 226.207 C 171.791 231.955,179.500 243.286,185.226 243.182 C 186.025 243.168,185.937 243.071,184.738 242.643 C 178.112 240.276,174.691 235.488,174.562 228.400 L 174.486 224.200 172.543 222.087 C 171.474 220.924,170.394 219.741,170.142 219.457 C 167.472 216.448,166.886 207.418,169.168 204.430 L 169.909 203.460 171.454 204.677 C 172.304 205.346,173.450 206.029,174.000 206.196 C 174.550 206.362,175.250 206.699,175.556 206.944 C 177.783 208.733,187.538 209.368,191.626 207.991 C 196.919 206.208,198.986 204.719,198.220 203.239 C 196.912 200.710,196.279 200.540,193.562 201.988 C 184.225 206.965,171.809 203.138,169.593 194.600 L 169.282 193.400 169.241 194.851 M137.328 204.074 C 134.176 209.421,135.402 217.615,139.969 221.728 C 140.501 222.207,141.258 222.907,141.650 223.282 C 143.790 225.328,149.270 226.339,151.024 225.013 C 151.451 224.690,152.091 224.420,152.446 224.413 C 152.801 224.406,153.550 224.040,154.109 223.600 C 155.412 222.575,156.190 222.590,157.260 223.660 C 158.331 224.731,158.012 225.328,155.485 226.990 C 153.011 228.616,153.087 229.296,156.052 232.048 C 158.390 234.218,159.305 237.200,157.632 237.200 C 155.987 237.200,151.242 233.212,150.130 230.896 C 149.454 229.485,149.142 229.366,145.153 228.994 C 142.075 228.708,141.663 229.095,142.616 231.377 C 142.937 232.146,143.200 233.208,143.200 233.738 C 143.200 234.268,143.470 234.926,143.800 235.200 C 144.130 235.474,144.400 235.936,144.400 236.227 C 144.400 236.953,149.502 242.000,150.236 242.000 C 150.562 242.000,151.261 242.284,151.791 242.631 C 152.452 243.064,153.979 243.306,156.677 243.404 L 160.600 243.547 157.200 243.220 C 152.036 242.723,144.800 238.460,144.800 235.914 C 144.800 235.666,144.535 235.170,144.211 234.812 C 143.866 234.431,143.576 233.174,143.511 231.780 L 143.400 229.400 145.800 229.542 C 148.475 229.701,148.901 229.943,150.242 232.066 C 151.994 234.842,155.998 237.772,157.704 237.526 C 160.022 237.192,159.078 232.089,156.678 231.978 C 156.174 231.955,154.533 230.057,154.224 229.140 C 154.117 228.824,154.803 228.100,155.875 227.396 C 158.804 225.472,159.062 224.811,157.479 223.276 L 156.162 222.000 154.181 222.948 C 148.732 225.557,147.831 225.681,144.508 224.281 C 137.455 221.310,133.885 210.986,137.684 204.547 C 138.431 203.282,140.678 203.192,142.184 204.366 C 143.318 205.250,152.733 206.088,156.077 205.602 C 157.905 205.336,160.369 205.023,161.553 204.906 L 163.707 204.692 163.431 206.046 C 162.024 212.963,163.575 219.548,167.612 223.800 C 169.113 225.382,169.598 226.770,169.610 229.526 C 169.626 233.220,171.571 238.046,174.200 240.916 C 176.400 243.317,174.955 243.485,170.555 241.339 L 167.559 239.878 164.680 241.295 C 163.096 242.075,161.530 242.808,161.200 242.925 C 160.822 243.058,160.940 243.149,161.522 243.168 C 162.029 243.186,163.469 242.627,164.722 241.926 C 167.146 240.570,168.479 240.422,169.455 241.398 C 169.786 241.729,170.382 242.000,170.780 242.000 C 171.177 242.000,171.726 242.270,172.000 242.600 C 172.674 243.412,176.000 243.431,176.000 242.622 C 176.000 242.305,175.382 241.370,174.626 240.545 C 172.076 237.762,170.000 232.188,170.000 228.126 C 170.000 226.322,169.379 224.907,167.763 223.030 C 163.935 218.584,162.865 214.153,163.811 206.656 C 164.112 204.266,163.611 203.161,162.605 203.996 C 162.195 204.336,154.795 205.281,152.800 205.247 C 149.733 205.195,143.465 204.351,142.509 203.862 C 139.937 202.546,138.187 202.617,137.328 204.074 M201.172 226.192 C 200.235 226.701,199.295 227.890,197.472 230.874 C 196.603 232.295,195.857 237.252,196.183 239.429 C 196.528 241.727,194.725 242.770,189.600 243.237 L 186.200 243.547 190.014 243.411 C 193.018 243.303,194.135 243.093,195.271 242.423 L 196.715 241.571 196.898 237.086 C 197.045 233.495,197.252 232.285,197.939 231.019 C 200.071 227.088,202.488 225.702,203.480 227.841 C 203.946 228.846,203.498 230.400,202.742 230.400 C 202.596 230.400,202.009 231.197,201.438 232.171 C 199.535 235.419,200.100 242.000,202.283 242.000 C 202.513 242.000,202.926 242.270,203.200 242.600 C 203.481 242.938,204.332 243.194,205.149 243.186 C 206.571 243.171,206.557 243.156,204.400 242.388 C 199.641 240.694,199.305 234.749,203.706 230.116 C 204.767 228.999,204.854 228.747,204.378 228.174 C 204.077 227.811,203.644 227.143,203.416 226.689 C 202.874 225.613,202.423 225.513,201.172 226.192 M207.907 243.490 C 208.626 243.579,209.706 243.577,210.307 243.486 C 210.908 243.395,210.320 243.322,209.000 243.324 C 207.680 243.326,207.188 243.401,207.907 243.490 " stroke="none" fill="#949ca4" fill-rule="evenodd"></path></g></svg>